<svg xmlns="http://www.w3.org/2000/svg" width="1200" height="675" viewBox="0 0 1200 675">
<defs><linearGradient id="bg" x1="0" x2="1" y1="0" y2="1"><stop offset="0%" stop-color="#0f1e12"/><stop offset="100%" stop-color="#4a8a47"/></linearGradient></defs>
<rect width="1200" height="675" fill="url(#bg)"/>
<rect y="460" width="1200" height="215" fill="#3f7d3a"/><rect y="520" width="1200" height="155" fill="#6b4f2f"/>
<g opacity="0.18"><rect x="80" y="80" width="120" height="120" fill="#8bcf7d"/><rect x="210" y="80" width="120" height="120" fill="#72b96a"/><rect x="340" y="80" width="120" height="120" fill="#8bcf7d"/><rect x="470" y="80" width="120" height="120" fill="#72b96a"/><rect x="600" y="80" width="120" height="120" fill="#8bcf7d"/></g>
<g transform="translate(780 170)"><rect x="0" y="0" width="200" height="200" rx="12" fill="#7ecb6f"/><rect x="34" y="54" width="40" height="40" fill="#1b1b1b"/><rect x="126" y="54" width="40" height="40" fill="#1b1b1b"/><rect x="78" y="116" width="44" height="28" fill="#1b1b1b"/><rect x="56" y="144" width="88" height="18" fill="#1b1b1b"/></g>
<text x="90" y="390" fill="white" font-size="92" font-family="Inter, Arial, sans-serif" font-weight="800">Minecraft</text>
<text x="95" y="445" fill="#dcefd8" font-size="28" font-family="Inter, Arial, sans-serif">Sandbox • Survival • Creativity</text>
</svg>